<?xml version="1.0" encoding="UTF-8" ?>
<!DOCTYPE svg PUBLIC "-//W3C//DTD SVG 1.1//EN" "http://www.w3.org/Graphics/SVG/1.1/DTD/svg11.dtd">
<svg width="64pt" height="55pt" viewBox="0 0 64 55" version="1.1" xmlns="http://www.w3.org/2000/svg">
<path fill="#ffffff" d=" M 0.00 0.00 L 64.00 0.00 L 64.00 55.00 L 0.00 55.00 L 0.00 0.00 Z" />
<path fill="#f3d09a" d=" M 2.48 9.18 C 2.51 6.87 4.76 5.22 6.97 5.42 C 23.58 5.29 40.19 5.49 56.80 5.33 C 58.20 6.93 59.95 8.58 59.65 10.93 C 59.60 17.30 59.46 23.66 59.51 30.03 C 59.81 32.35 58.21 34.09 56.80 35.69 C 45.54 35.48 34.28 35.74 23.02 35.54 C 20.98 35.61 18.57 35.29 17.08 37.00 C 13.72 40.27 10.45 43.64 7.28 47.09 C 7.44 43.50 7.43 39.90 7.26 36.31 C 5.55 35.24 3.90 34.10 2.30 32.88 C 2.61 24.98 2.12 17.07 2.48 9.18 Z" />
<path fill="#fff8d5" d=" M 3.94 8.69 C 6.28 8.26 8.64 7.92 11.03 7.94 C 25.36 8.10 39.70 7.92 54.03 8.01 C 55.22 8.29 57.17 7.84 57.76 9.22 C 58.38 13.44 57.87 17.73 58.03 21.99 C 57.96 25.47 58.47 29.06 57.51 32.46 C 55.38 33.02 53.17 33.04 50.99 33.06 C 40.32 32.94 29.66 33.03 18.99 32.99 C 13.96 32.95 8.86 33.46 3.91 32.26 C 4.07 24.41 4.02 16.55 3.94 8.69 Z" />
<path fill="#8d8d8c" d=" M 8.85 15.12 C 12.29 14.95 15.73 14.99 19.17 15.02 L 19.12 15.87 C 17.44 15.93 15.76 16.00 14.08 16.07 C 14.10 19.05 14.11 22.02 14.12 25.00 L 12.66 25.00 C 12.67 22.13 12.68 19.26 12.71 16.39 C 11.42 15.97 10.13 15.55 8.85 15.12 Z" />
<path fill="#8c8c8c" d=" M 18.22 18.27 C 19.39 18.83 18.86 21.03 19.03 22.15 C 19.08 22.56 18.78 25.86 17.99 24.24 C 17.57 22.31 17.36 20.10 18.22 18.27 Z" />
<path fill="#9b9a96" d=" M 20.61 17.82 C 23.01 17.95 26.98 17.53 26.94 21.02 C 27.54 24.08 24.61 25.29 22.10 25.34 C 22.10 26.00 22.09 27.34 22.09 28.00 L 20.63 28.00 C 20.62 24.60 20.61 21.21 20.61 17.82 Z" />
<path fill="#9d9c96" d=" M 32.83 17.55 C 34.24 18.15 36.95 17.66 36.99 19.79 C 35.88 19.50 34.78 19.18 33.69 18.82 C 33.11 20.56 33.14 22.37 33.65 24.12 C 34.70 23.69 35.77 23.39 36.88 23.23 C 37.25 25.35 34.10 24.77 32.87 25.46 C 31.11 22.94 31.03 20.07 32.83 17.55 Z" />
<path fill="#999894" d=" M 38.79 20.02 C 38.59 17.20 43.90 17.01 43.99 19.76 C 42.46 19.53 40.94 19.27 39.43 18.94 C 40.46 21.27 45.65 20.78 44.09 23.84 C 43.51 25.75 38.86 25.73 39.11 23.31 C 40.51 23.53 42.01 24.16 43.27 23.16 C 41.85 22.02 39.44 21.92 38.79 20.02 Z" />
<path fill="#999894" d=" M 45.77 19.98 C 46.02 16.76 50.88 17.57 51.86 20.04 C 50.04 19.70 48.25 19.25 46.43 18.93 C 47.81 20.81 50.04 21.53 52.18 22.15 C 50.99 25.57 46.91 26.02 44.83 23.11 C 46.68 23.55 48.82 24.47 50.38 22.85 C 48.91 21.89 46.11 22.15 45.77 19.98 Z" />
<path fill="#f0ebd2" d=" M 21.49 21.90 C 22.49 20.87 22.88 18.19 24.81 19.24 C 25.21 20.74 25.17 22.32 24.81 23.82 C 23.25 24.39 22.51 22.68 21.49 21.90 Z" />
<path fill="#a5a49b" d=" M 28.27 24.08 C 31.20 22.52 28.39 27.47 28.27 24.08 Z" />
</svg>
